<?xml version="1.0" encoding="utf-8"?>
<!-- Generator: Adobe Illustrator 26.5.0, SVG Export Plug-In . SVG Version: 6.00 Build 0)  -->
<svg version="1.1" id="Layer_1" xmlns="http://www.w3.org/2000/svg" xmlns:xlink="http://www.w3.org/1999/xlink" x="0px" y="0px"
	 viewBox="0 0 622 229" style="enable-background:new 0 0 622 229;" xml:space="preserve">
<style type="text/css">
	.st0{clip-path:url(#SVGID_00000011727600344960991400000011877678060145708214_);fill:#452062;}
	.st1{clip-path:url(#SVGID_00000080927264605785783310000009096964959967731386_);fill:#AA206E;}
	.st2{fill:#AA206E;}
	.st3{fill:#452062;}
	.st4{fill:none;}
	.st5{font-family:'Audiowide-Regular';}
	.st6{font-size:10px;}
</style>
<g>
	<g>
		<g>
			<defs>
				<rect id="SVGID_1_" x="-19" y="4.5" width="720" height="146.9"/>
			</defs>
			<clipPath id="SVGID_00000020363928199796676650000007831424814302501787_">
				<use xlink:href="#SVGID_1_"  style="overflow:visible;"/>
			</clipPath>
			<path style="clip-path:url(#SVGID_00000020363928199796676650000007831424814302501787_);fill:#452062;" d="M539.4,49.5h-0.6
				c-20.8-7.1-41.6-14.3-62.7-20.1c-11-3.1-22.1-5.8-33.2-8c-2.8-0.6-5.6-1-8.4-1.6c-1.4-0.2-2.8-0.5-4.2-0.7l-4.2-0.6l-4.2-0.6
				c-1.4-0.2-2.8-0.3-4.2-0.5c-2.8-0.3-5.6-0.7-8.4-0.9l-4.2-0.4c-1.4-0.1-2.8-0.3-4.2-0.3c-2.8-0.1-5.6-0.3-8.4-0.4l-8.4-0.1
				c-2.8,0.1-5.6,0.2-8.4,0.3c-11.2,0.7-22.3,2.4-33.2,5.1c-10.9,2.7-21.7,6.2-32.3,10.6c-10.6,4.3-20.9,9.3-31.1,14.9
				c-2.5,1.4-5.1,2.7-7.6,4.2s-5.1,2.9-7.6,4.4s-5,3-7.5,4.5l-7.5,4.7c-5,3.1-10.2,6.2-15.5,8.9s-10.9,5.1-16.7,6.7l-2.2,0.6
				l-2.2,0.5c-1.4,0.4-2.9,0.6-4.3,0.9c-2.9,0.5-5.8,0.9-8.7,1.3c-5.8,0.7-11.5,1.1-17.2,1.5s-11.3,0.8-16.8,1.5l-16.9,2.4
				c-5.6,0.8-11.3,1.6-16.9,2.5c-5.6,0.9-11.2,1.9-16.7,3.1c-11.1,2.3-22.1,5.3-32.7,9.7c-10.6,4.3-20.7,10.2-29.3,18.5
				c-4.3,4.2-8.1,9-11.2,14.4s-5.5,11.4-7.1,17.7c1.2-6.4,3.2-12.6,6.1-18.4c2.9-5.7,6.5-11,10.7-15.6s8.9-8.5,13.9-11.9
				s10.2-6.3,15.5-8.9c5.3-2.5,10.8-4.6,16.3-6.5s11.1-3.5,16.7-4.9c5.6-1.4,11.2-2.6,16.9-3.7c5.6-1.1,11.3-2.1,16.9-3.1l16.9-3
				c5.7-0.9,11.5-1.5,17.2-2s11.3-1,16.9-1.8c2.8-0.4,5.5-0.8,8.3-1.3c1.4-0.3,2.7-0.5,4.1-0.9l2-0.5l2-0.6c2.6-0.8,5.2-1.7,7.8-2.8
				c2.6-1.1,5.1-2.3,7.6-3.6c5-2.6,10-5.7,14.9-8.8l7.5-4.7c2.5-1.6,5.1-3.1,7.6-4.6c2.5-1.6,5.1-3,7.7-4.5s5.2-2.9,7.8-4.3
				c10.4-5.6,21-10.7,31.9-15.1c10.9-4.3,22-8,33.4-10.5C352.4,9.6,364,8,375.5,7.6c2.9-0.1,5.8-0.1,8.7-0.2l8.7,0.3
				c2.9,0.2,5.7,0.4,8.6,0.7c1.4,0.1,2.9,0.3,4.3,0.4l4.3,0.5c2.9,0.3,5.7,0.8,8.5,1.2c1.4,0.2,2.8,0.4,4.3,0.7l4.2,0.8l4.2,0.8
				c1.4,0.3,2.8,0.6,4.2,0.9c2.8,0.6,5.6,1.2,8.4,1.9c11.2,2.7,22.3,5.9,33.3,9.6C498.3,32.1,519,40.5,539.4,49.5z"/>
		</g>
		<g>
			<defs>
				<rect id="SVGID_00000146464747641993692100000015203078361925917833_" x="-19" y="4.5" width="720" height="146.9"/>
			</defs>
			<clipPath id="SVGID_00000018237323311111258070000006083547783282098871_">
				<use xlink:href="#SVGID_00000146464747641993692100000015203078361925917833_"  style="overflow:visible;"/>
			</clipPath>
			<path style="clip-path:url(#SVGID_00000018237323311111258070000006083547783282098871_);fill:#AA206E;" d="M137.8,120.9l86.1-23
				c8.6-2.3,17.6-3.7,26.8-4.3l363.1-21.9L137.8,120.9z"/>
		</g>
	</g>
	<g>
		<path class="st2" d="M23.4,118.3C40,82.6,80.6,65.4,117.9,76.4c-0.9-0.4-1.7-0.9-2.6-1.3c-39.1-18.2-85.5-1.3-103.7,37.7
			c-18.1,39-1.1,85.4,38,103.5c0.9,0.4,1.8,0.8,2.6,1.1C19.8,196.1,6.8,154,23.4,118.3z"/>
	</g>
	<g>
		<path class="st3" d="M403.3,161.5c0,2.2-0.3,4.1-0.8,5.9c-0.5,1.7-1.3,3.3-2.2,4.6s-2,2.5-3.2,3.4s-2.5,1.7-3.8,2.3
			c-1.3,0.6-2.6,1-4,1.3c-1.3,0.3-2.6,0.4-3.8,0.4H343v-11h42.5c2.1,0,3.8-0.6,4.9-1.9c1.2-1.2,1.8-2.9,1.8-5c0-1-0.2-1.9-0.5-2.8
			s-0.8-1.6-1.3-2.2c-0.6-0.6-1.3-1.1-2.1-1.4c-0.8-0.3-1.8-0.5-2.8-0.5h-25.3c-1.8,0-3.7-0.3-5.8-1c-2.1-0.6-4-1.7-5.7-3.1
			c-1.8-1.4-3.2-3.3-4.4-5.5c-1.2-2.3-1.8-5.1-1.8-8.4s0.6-6.1,1.8-8.4c1.2-2.3,2.6-4.1,4.4-5.5s3.7-2.5,5.7-3.1c2.1-0.6,4-1,5.8-1
			h37.5v11h-37.5c-2.1,0-3.7,0.6-4.9,1.9s-1.8,3-1.8,5c0,2.1,0.6,3.8,1.8,5c1.2,1.2,2.8,1.8,4.9,1.8h25.3h0.1c1.2,0,2.4,0.2,3.8,0.5
			c1.3,0.3,2.6,0.8,4,1.4c1.3,0.6,2.6,1.4,3.7,2.3c1.2,0.9,2.2,2.1,3.2,3.4c0.9,1.3,1.6,2.9,2.2,4.6
			C403.1,157.4,403.3,159.3,403.3,161.5z"/>
		<path class="st3" d="M473.1,154c0,3.7-0.6,7.1-1.9,10.2c-1.3,3.1-3.1,5.8-5.3,8c-2.3,2.2-4.9,4-8,5.3s-6.5,1.9-10.1,1.9h-29.7
			c-0.8,0-1.5-0.1-2.2-0.4s-1.3-0.7-1.8-1.2s-0.9-1.1-1.2-1.8c-0.3-0.7-0.4-1.4-0.4-2.2v-49.6c0-0.8,0.1-1.5,0.4-2.2
			s0.7-1.3,1.2-1.8s1.1-0.9,1.8-1.2c0.7-0.3,1.4-0.4,2.2-0.4h29.7c3.6,0,7,0.6,10.1,1.9s5.8,3,8,5.3c2.3,2.2,4,4.9,5.3,8
			s1.9,6.5,1.9,10.2V154z M462.1,144.1c0-2.1-0.3-4.1-1-5.9s-1.7-3.3-2.9-4.6c-1.3-1.3-2.8-2.2-4.6-2.9c-1.8-0.7-3.7-1-5.9-1h-24.3
			v38.7h24.3c2.1,0,4.1-0.3,5.9-1s3.3-1.7,4.6-2.9c1.3-1.3,2.3-2.8,2.9-4.5c0.7-1.8,1-3.7,1-5.9V144.1z"/>
		<path class="st3" d="M543.2,118.7l-28.7,58.6c-0.5,0.9-1.1,1.6-2,2.2c-0.9,0.5-1.9,0.8-2.9,0.8s-2-0.3-2.9-0.8
			c-0.9-0.6-1.6-1.3-2.1-2.2l-28.7-58.6h12.3l21.3,43.7l21.4-43.7H543.2z"/>
	</g>
	<g>
		<path class="st2" d="M61.6,217.3v-21.9h14.2v4.1h-9.1v4.5h8.6v4.1h-8.6v5.1h9.4v4.2H61.6V217.3z"/>
		<path class="st2" d="M85.9,217.7c-4.3,0-8.2-2.9-8.2-8.1s4-8.1,8.3-8.1c4,0,5.8,1.6,5.8,1.6l-1.1,3.8c-0.4-0.3-1.8-1.4-4-1.4
			s-3.9,1.5-3.9,4s1.6,4,3.9,4c2.4,0,4-1.5,4-1.5l1.2,3.8C91.7,215.9,90,217.7,85.9,217.7z"/>
		<path class="st2" d="M94,217.3v-21.9h5.1v21.9H94z"/>
		<path class="st2" d="M105.1,199.9c-1.7,0-2.9-1-2.9-2.6s1.2-2.6,2.9-2.6s2.9,1.1,2.9,2.6S106.8,199.9,105.1,199.9z M102.6,217.3
			v-15.6h5.1v15.6H102.6z"/>
		<path class="st2" d="M121.1,217.7c-2.3,0-4-0.9-4.9-2.3v7.7h-5.1v-21.4h4.8v2h0.1c1.1-1.4,2.8-2.3,5.2-2.3c4.5,0,7.4,3.5,7.4,8.1
			S125.7,217.7,121.1,217.7z M119.7,205.4c-2.2,0-3.6,1.6-3.6,4.1c0,2.4,1.5,4.1,3.6,4.1c2.2,0,3.7-1.6,3.7-4.1
			C123.4,207.1,121.9,205.4,119.7,205.4z"/>
		<path class="st2" d="M136.3,217.7c-2.3,0-4.8-0.7-6.6-2.4l1.9-3c1.3,1.1,3.4,1.9,4.6,1.9c1.3,0,2.2-0.3,2.2-1.3s-2.3-1.5-2.9-1.7
			c-2.6-0.7-4.9-1.6-4.9-4.8c0-3,2.7-4.9,5.9-4.9c3.3,0,5.1,1.2,6,1.9l-1.6,3c-0.9-0.7-2.7-1.5-3.9-1.5s-1.9,0.3-1.9,1.1
			s1.2,1.2,2.3,1.5c2.7,0.8,5.5,1.6,5.5,5.1C142.9,216.3,139.5,217.7,136.3,217.7z"/>
		<path class="st2" d="M160.5,210.7h-11.1c0.2,2.3,1.9,3.3,4,3.3c2,0,3.8-0.9,4.7-1.5l2,2.6c-0.5,0.4-2.6,2.5-7.4,2.5
			c-4.8,0-8.3-3-8.3-8.1c0-5.2,3.8-8.1,8.4-8.1s7.8,3.1,7.8,7.6C160.6,209.8,160.5,210.7,160.5,210.7z M152.7,204.7
			c-2.1,0-3.2,1.6-3.2,3.1h6.4C155.9,206.4,154.8,204.7,152.7,204.7z"/>
		<path class="st3" d="M175.8,217.7c-3.2,0-6-1.6-7.8-3.3l2.5-3.7c1.6,1.6,4,2.8,5.7,2.8c1.6,0,2.9-0.8,2.9-2.3s-1.6-2.1-2.6-2.4
			s-2.6-0.9-3.3-1.2c-0.5-0.3-1.6-0.7-2.6-1.6s-1.7-2.2-1.7-4.2c0-2.1,1-3.7,2.3-4.8c1.2-1,3.2-1.7,5.8-1.7s5.5,1.2,6.9,2.7
			l-2.2,3.6c-1.3-1.3-3.2-2.2-4.9-2.2c-1.6,0-2.9,0.6-2.9,2s1.2,1.8,2.2,2.2c1,0.4,2.6,1,3.3,1.2c2.8,1,4.8,2.8,4.8,6
			C184.3,215.4,180,217.7,175.8,217.7z"/>
		<path class="st3" d="M194.5,217.7c-4.9,0-8.7-3.1-8.7-8.1s3.7-8.1,8.7-8.1c4.9,0,8.7,3.1,8.7,8.1
			C203.1,214.6,199.4,217.7,194.5,217.7z M194.5,205.4c-2.3,0-3.6,1.7-3.6,4.1s1.3,4.1,3.6,4.1c2.2,0,3.6-1.7,3.6-4.1
			S196.7,205.4,194.5,205.4z"/>
		<path class="st3" d="M221.7,205.6v5.6c0,1.4,0.1,2.3,1.6,2.3c0.8,0,1.5-0.3,1.5-0.3l0.3,4c-0.4,0.1-1.8,0.5-3.6,0.5
			c-4.1,0-4.9-2.5-4.9-6.1v-6.1h-5.3v11.8h-5.1v-11.8h-2v-3.8h2v-0.9c0-3.7,1.8-5.8,5.6-5.8c2,0,3.5,0.4,3.5,0.4l-0.3,3.5
			c0,0-1-0.3-1.9-0.3c-1.5,0-1.9,0.9-1.9,2v1h5.3v-4.2h5.1v4.2h3.5v3.8h-3.4V205.6z"/>
		<path class="st3" d="M246.4,217.3h-4.8l-3-9.6l-3.1,9.6h-4.8l-5.1-15.6h5.1l2.8,10l3-10h4.2l3,10l2.8-10h5.1L246.4,217.3z"/>
		<path class="st3" d="M262.6,217.3l-0.1-1.6c-0.7,0.7-1.9,2-4.5,2c-2.8,0-5.7-1.5-5.7-5s3.2-4.7,6.1-4.8l3.9-0.2v-0.3
			c0-1.6-1.2-2.5-3.2-2.5s-4,0.9-4.8,1.4L253,203c1.3-0.7,3.8-1.6,6.7-1.6c4.9,0,7.7,2,7.7,7.1v8.8H262.6z M259.9,210.6
			c-1.6,0.1-2.5,0.7-2.5,1.9c0,1.2,1,1.9,2.4,1.9s2.3-0.9,2.6-1.4v-2.6L259.9,210.6z"/>
		<path class="st3" d="M280.9,206.4h-0.2c-0.3-0.2-1-0.4-1.8-0.4c-2.5,0-3.1,2.3-3.1,4.4v6.9h-5.1v-15.6h5.1v2.2h0.1
			c0.9-1.7,2.2-2.5,3.9-2.5c1,0,1.6,0.3,1.6,0.3L280.9,206.4z"/>
		<path class="st3" d="M298,210.7h-11.1c0.2,2.3,1.9,3.3,4,3.3c2,0,3.8-0.9,4.7-1.5l2,2.6c-0.5,0.4-2.6,2.5-7.4,2.5s-8.3-3-8.3-8.1
			c0-5.2,3.8-8.1,8.4-8.1s7.8,3.1,7.8,7.6C298.1,209.8,298,210.7,298,210.7z M290.1,204.7c-2.1,0-3.2,1.6-3.2,3.1h6.4
			C293.3,206.4,292.3,204.7,290.1,204.7z"/>
		<path class="st3" d="M314.4,217.3H307v-21.9h7.4c6.9,0,12,3.6,12,10.9C326.4,213.7,321.3,217.3,314.4,217.3z M314.7,199.7h-2.6
			V213h2.6c4.1,0,6.5-2.5,6.5-6.6S318.8,199.7,314.7,199.7z"/>
		<path class="st3" d="M344.2,210.7h-11.1c0.2,2.3,1.9,3.3,4,3.3c2,0,3.8-0.9,4.7-1.5l2,2.6c-0.5,0.4-2.6,2.5-7.4,2.5
			s-8.3-3-8.3-8.1c0-5.2,3.8-8.1,8.4-8.1s7.8,3.1,7.8,7.6C344.3,209.8,344.2,210.7,344.2,210.7z M336.4,204.7
			c-2.1,0-3.2,1.6-3.2,3.1h6.4C339.5,206.4,338.5,204.7,336.4,204.7z"/>
		<path class="st3" d="M354.3,198.7c-1.7,0-1.9,1.2-1.9,2.4v0.6h3.4v3.8h-3.4v11.8h-5.1v-11.8h-2v-3.8h2v-0.9c0-3.8,1.8-5.8,5.7-5.8
			c1.7,0,3.3,0.4,3.3,0.4l-0.3,3.5C355.5,198.8,354.9,198.7,354.3,198.7z M359.9,199.9c-1.7,0-2.9-1-2.9-2.6s1.2-2.6,2.9-2.6
			c1.7,0,2.9,1.1,2.9,2.6S361.6,199.9,359.9,199.9z M357.4,217.3v-15.6h5.1v15.6H357.4z"/>
		<path class="st3" d="M376.1,217.3v-8.1c0-2.1-0.3-3.6-2.4-3.6c-2.2,0-2.8,1.8-2.8,4v7.7h-5.1v-15.6h5.1v2.3h0.1
			c0.9-1.4,2.3-2.5,4.5-2.5c4.5,0,5.7,2.9,5.7,6.7v9.2h-5.1V217.3z"/>
		<path class="st3" d="M399.8,210.7h-11.1c0.2,2.3,1.9,3.3,4,3.3c2,0,3.8-0.9,4.7-1.5l2,2.6c-0.5,0.4-2.6,2.5-7.4,2.5
			s-8.3-3-8.3-8.1c0-5.2,3.8-8.1,8.4-8.1s7.8,3.1,7.8,7.6C399.8,209.8,399.8,210.7,399.8,210.7z M391.9,204.7
			c-2.1,0-3.2,1.6-3.2,3.1h6.4C395.1,206.4,394,204.7,391.9,204.7z"/>
		<path class="st3" d="M414,217.3v-2.1h-0.1c-1.2,1.6-3,2.4-5.1,2.4c-4.5,0-7.4-3.6-7.4-8.1s2.9-8.1,7.4-8.1c2.9,0,4.4,1.4,4.9,2.2
			v-8.1h5.1v21.9L414,217.3L414,217.3z M410.3,205.4c-2.2,0-3.7,1.6-3.7,4.1c0,2.4,1.5,4.1,3.7,4.1s3.6-1.6,3.6-4.1
			C413.9,207.1,412.4,205.4,410.3,205.4z"/>
		<path class="st3" d="M439.7,217.3h-4.9l-8.1-21.9h5.5l5.1,15.1l5.1-15.1h5.4L439.7,217.3z"/>
		<path class="st3" d="M464.2,210.7h-11.1c0.2,2.3,1.9,3.3,4,3.3c2,0,3.8-0.9,4.7-1.5l2,2.6c-0.5,0.4-2.6,2.5-7.4,2.5
			s-8.3-3-8.3-8.1c0-5.2,3.8-8.1,8.4-8.1s7.8,3.1,7.8,7.6C464.3,209.8,464.2,210.7,464.2,210.7z M456.3,204.7
			c-2.1,0-3.2,1.6-3.2,3.1h6.4C459.5,206.4,458.5,204.7,456.3,204.7z"/>
		<path class="st3" d="M477,217.3v-8.2c0-1.9-0.3-3.6-2.4-3.6s-2.8,1.8-2.8,4.1v7.7h-5.1v-21.9h5.1v5.2c0,1.6,0,3.3,0,3.3
			c0.8-1.4,2.3-2.5,4.6-2.5c4.5,0,5.7,2.9,5.7,6.7v9.2L477,217.3L477,217.3z"/>
		<path class="st3" d="M487.9,199.9c-1.7,0-2.9-1-2.9-2.6s1.2-2.6,2.9-2.6s2.9,1.1,2.9,2.6C490.8,198.8,489.6,199.9,487.9,199.9z
			 M485.4,217.3v-15.6h5.1v15.6H485.4z"/>
		<path class="st3" d="M501.2,217.7c-4.3,0-8.2-2.9-8.2-8.1s4-8.1,8.3-8.1c4,0,5.8,1.6,5.8,1.6l-1.1,3.8c-0.4-0.3-1.8-1.4-4-1.4
			s-3.9,1.5-3.9,4s1.6,4,3.9,4s4-1.5,4-1.5l1.2,3.8C507,215.9,505.3,217.7,501.2,217.7z"/>
		<path class="st3" d="M509.3,217.3v-21.9h5.1v21.9H509.3z"/>
		<path class="st3" d="M533.1,210.7H522c0.2,2.3,1.9,3.3,4,3.3c2,0,3.8-0.9,4.7-1.5l2,2.6c-0.5,0.4-2.6,2.5-7.4,2.5
			c-4.8,0-8.3-3-8.3-8.1c0-5.2,3.8-8.1,8.4-8.1s7.8,3.1,7.8,7.6C533.1,209.8,533.1,210.7,533.1,210.7z M525.2,204.7
			c-2.1,0-3.2,1.6-3.2,3.1h6.4C528.4,206.4,527.3,204.7,525.2,204.7z"/>
	</g>
</g>
<rect x="593.2" y="57.6" class="st4" width="44" height="32"/>
<text transform="matrix(1 0 0 1 593.1953 65.1172)" class="st2 st5 st6">TM</text>
</svg>
